<?xml version="1.0" encoding="UTF-8"?>
<svg width="500" height="500" viewBox="0 0 500 500" fill="none" xmlns="http://www.w3.org/2000/svg">
  <rect width="500" height="500" rx="250" fill="#10A37F"/>
  <path d="M360 250C360 311.856 309.856 362 248 362C186.144 362 136 311.856 136 250C136 188.144 186.144 138 248 138C309.856 138 360 188.144 360 250Z" fill="white"/>
  <path d="M325 250C325 292.467 290.467 327 248 327C205.533 327 171 292.467 171 250C171 207.533 205.533 173 248 173C290.467 173 325 207.533 325 250Z" fill="#10A37F"/>
  <path d="M292 250C292 274.301 272.301 294 248 294C223.699 294 204 274.301 204 250C204 225.699 223.699 206 248 206C272.301 206 292 225.699 292 250Z" fill="white"/>
  <path d="M275 250C275 264.359 263.359 276 249 276C234.641 276 223 264.359 223 250C223 235.641 234.641 224 249 224C263.359 224 275 235.641 275 250Z" fill="#10A37F"/>
  <path d="M395 180L415 230L435 180H455L425 250L455 320H435L415 270L395 320H375L405 250L375 180H395Z" fill="white"/>
</svg>